<?xml version="1.0" standalone="no"?>
<!DOCTYPE svg PUBLIC "-//W3C//DTD SVG 20010904//EN"
 "http://www.w3.org/TR/2001/REC-SVG-20010904/DTD/svg10.dtd">
<svg version="1.0" xmlns="http://www.w3.org/2000/svg"
 width="500.000000pt" height="500.000000pt" viewBox="0 0 500.000000 500.000000"
 preserveAspectRatio="xMidYMid meet">

<g transform="translate(0.000000,500.000000) scale(0.100000,-0.100000)"
fill="#000000" stroke="none">
<path d="M3410 3950 l0 -50 -50 0 -50 0 0 -40 c0 -22 -3 -39 -7 -39 -5 1 -45
1 -90 0 l-83 -1 0 -45 0 -45 -62 -1 c-35 -1 -55 -3 -45 -6 14 -4 17 -17 17
-89 l0 -84 -39 0 c-26 0 -41 -5 -45 -16 -3 -9 -6 -114 -6 -235 l0 -219 45 0
45 0 0 95 0 95 39 0 c44 0 58 20 47 66 -4 16 -2 24 6 25 7 1 24 3 38 4 14 1
31 3 38 4 7 0 12 16 12 41 l0 39 153 3 c83 2 169 2 190 0 36 -3 37 -4 37 -43
l0 -39 50 0 50 0 0 -50 0 -50 50 0 50 0 0 -207 c0 -115 -3 -218 -6 -230 -5
-19 -13 -23 -50 -23 l-44 0 0 -50 0 -50 -50 0 -50 0 0 -45 0 -45 -39 0 c-40 0
-40 0 -43 -42 l-3 -43 -267 2 -268 2 -5 -22 c-2 -12 -6 -35 -7 -52 l-3 -30
-97 3 -97 4 -3 -49 -3 -48 -45 -5 c-40 -4 -45 -8 -46 -30 -2 -59 -2 -60 -44
-60 -42 0 -43 -1 -42 -62 0 -24 -4 -27 -36 -30 -36 -3 -37 -4 -40 -45 l-3 -43
-55 0 -55 0 3 -137 3 -138 48 0 47 0 0 -42 0 -43 39 0 40 0 3 -47 3 -48 48 -3
c49 -3 54 -10 49 -74 -1 -13 8 -18 41 -20 l42 -3 3 -47 3 -48 38 0 c45 0 63
-17 59 -57 l-3 -28 90 -5 90 -5 3 -42 3 -43 45 0 c28 0 45 -5 46 -12 2 -14 4
-41 7 -70 1 -15 11 -18 50 -18 l50 0 3 -43 3 -42 133 -3 132 -3 0 -44 0 -45
89 0 90 0 3 -42 3 -43 93 -3 92 -3 0 -38 0 -39 118 -7 c153 -10 197 -10 385
-7 l157 2 0 50 0 49 88 3 87 3 5 40 c5 39 6 40 45 40 57 0 63 8 63 73 0 109
-3 102 47 102 43 0 45 1 45 29 0 47 10 61 41 61 l29 0 0 370 c0 363 0 370 -20
371 -11 1 -26 2 -32 3 -9 1 -16 32 -23 91 l-10 90 -39 5 c-34 4 -39 9 -42 34
-5 53 -11 58 -57 54 l-42 -3 -3 98 -3 97 -44 0 -45 0 0 89 0 90 45 3 44 3 2
405 c0 223 1 411 0 418 -1 7 -17 12 -43 12 l-43 0 3 90 3 90 -45 0 -46 0 0 44
0 45 -47 3 -47 3 0 40 c-1 40 -1 40 -46 45 -45 5 -45 5 -50 49 l-5 44 -92 -2
-93 -2 0 45 0 46 -385 0 -385 0 0 -50z m1213 -1522 c-9 -14 -9 -15 -11 -140
-2 -80 -4 -88 -22 -88 -17 0 -19 7 -19 80 0 44 4 80 10 80 5 0 9 5 9 12 0 9
-3 9 -12 0 -21 -21 -28 -13 -28 28 l0 40 41 0 c30 0 38 -3 32 -12z m-1585 -55
c2 -9 -9 -13 -37 -13 -46 0 -52 6 -18 20 28 11 49 9 55 -7z m1500 -63 c8 -13
8 -21 1 -26 -6 -3 -13 3 -16 15 -5 19 -10 20 -64 14 -40 -4 -59 -2 -59 5 0 6
23 12 53 14 64 4 69 2 85 -22z m-97 -20 c27 4 52 3 54 -1 5 -7 -103 -18 -116
-12 -4 1 -4 15 0 30 l6 28 3 -26 c3 -24 5 -25 53 -19z m-1641 -17 c0 -20 -3
-33 -7 -30 -10 10 -11 67 -1 67 4 0 8 -16 8 -37z m1600 -23 c0 -12 -28 -25
-36 -17 -9 9 6 27 22 27 8 0 14 -5 14 -10z m-60 -10 c0 -5 -4 -10 -10 -10 -5
0 -10 5 -10 10 0 6 5 10 10 10 6 0 10 -4 10 -10z m-660 -10 c0 -6 127 -10 360
-10 244 0 360 -3 360 -10 0 -11 -564 -6 -722 6 -52 4 -78 3 -78 -4 0 -6 -17
-13 -37 -15 -21 -2 5 -1 58 1 l97 5 7 -42 c9 -53 29 -55 21 -1 -3 23 -1 40 4
40 6 0 10 -17 10 -39 0 -29 -6 -43 -22 -54 -22 -15 -20 -16 38 -16 46 -1 63 3
68 14 3 9 19 15 41 15 l35 0 0 -47 0 -46 126 7 c89 4 130 3 140 -5 10 -8 14
-8 14 0 0 6 9 11 20 11 11 0 20 -4 20 -10 0 -5 -7 -10 -15 -10 -8 0 -15 -6
-15 -14 0 -7 7 -19 15 -26 8 -7 15 -19 15 -27 0 -12 3 -13 14 -4 8 7 25 11 38
10 12 -1 42 -1 66 -1 38 2 42 4 42 28 0 49 16 54 174 54 l146 0 0 -26 c0 -27
0 -27 -61 -20 -34 3 -88 6 -120 6 -92 0 -70 20 24 22 59 1 68 3 32 6 -27 2
-79 1 -113 -3 l-64 -7 4 -34 4 -34 -53 0 c-41 0 -53 -4 -53 -15 0 -11 -7 -14
-25 -9 -14 3 -25 2 -25 -4 0 -22 125 -31 162 -11 15 8 19 17 14 39 -3 17 0 32
7 37 7 4 51 7 100 5 l87 -3 0 -105 0 -104 -160 0 c-136 0 -160 -2 -160 -15 0
-11 11 -15 40 -15 22 0 40 5 40 10 0 6 18 10 40 10 22 0 40 -4 40 -10 0 -5 19
-10 43 -10 31 0 38 -3 27 -10 -20 -13 -70 -13 -70 0 0 6 -18 10 -40 10 -22 0
-40 -4 -40 -9 0 -6 -19 -11 -42 -13 l-43 -3 -3 -82 c-3 -96 -22 -113 -22 -20
0 34 -2 85 -4 112 -2 28 -1 35 1 18 6 -46 20 -41 25 7 3 36 1 40 -19 40 -19 0
-23 5 -23 33 0 64 -8 75 -48 70 l-37 -5 0 49 0 48 -135 -1 c-134 -2 -130 0 28
12 45 3 80 10 76 15 -3 5 -47 6 -103 3 -122 -8 -151 -2 -151 31 0 25 -1 25
-95 25 -97 0 -102 2 -96 42 0 4 -4 19 -9 33 -10 25 -10 25 -140 25 -106 0
-130 3 -130 14 0 8 -3 21 -6 30 -5 14 10 16 125 16 81 0 131 -4 131 -10z
m-960 -36 c0 -8 -5 -12 -10 -9 -6 4 -8 11 -5 16 9 14 15 11 15 -7z m0 -50 c0
-11 -5 -14 -16 -10 -9 3 -18 6 -20 6 -3 0 -2 5 1 10 10 16 35 12 35 -6z m385
-4 c11 -18 -26 -23 -43 -6 -15 15 -14 16 10 16 15 0 30 -5 33 -10z m1598 -7
c-13 -2 -33 -2 -45 0 -13 2 -3 4 22 4 25 0 35 -2 23 -4z m-2083 -23 c0 -5 -4
-10 -10 -10 -5 0 -10 5 -10 10 0 6 5 10 10 10 6 0 10 -4 10 -10z m587 -12 c-3
-8 -6 -5 -6 6 -1 11 2 17 5 13 3 -3 4 -12 1 -19z m-664 -55 c-7 -2 -21 -2 -30
0 -10 3 -4 5 12 5 17 0 24 -2 18 -5z m817 -18 c0 -14 -4 -25 -10 -25 -5 0 -9
5 -7 12 1 7 -14 18 -33 24 l-35 13 43 0 c38 1 42 -1 42 -24z m40 10 c0 -8 -2
-15 -4 -15 -2 0 -6 7 -10 15 -3 8 -1 15 4 15 6 0 10 -7 10 -15z m-253 -31 c-3
-3 -12 -4 -19 -1 -8 3 -5 6 6 6 11 1 17 -2 13 -5z m-124 -21 c-13 -2 -33 -2
-45 0 -13 2 -3 4 22 4 25 0 35 -2 23 -4z m277 3 c0 -3 -4 -8 -10 -11 -5 -3
-10 -1 -10 4 0 6 5 11 10 11 6 0 10 -2 10 -4z m-54 -34 c-21 -2 -42 0 -47 5
-4 4 13 6 39 3 l47 -5 -39 -3z m-326 -32 c0 -22 -4 -40 -10 -40 -5 0 -10 3
-11 8 0 4 -2 18 -4 32 -3 28 2 40 16 40 5 0 9 -18 9 -40z m750 0 c0 -33 -3
-40 -20 -40 -16 0 -20 7 -20 33 0 36 6 47 27 47 9 0 13 -13 13 -40z m-1110 -6
c0 -8 -5 -12 -10 -9 -6 4 -8 11 -5 16 9 14 15 11 15 -7z m703 6 c9 0 17 -4 17
-10 0 -5 -18 -10 -40 -10 -30 0 -40 4 -40 16 0 12 6 15 23 10 12 -3 30 -6 40
-6z m-733 -4 c0 -3 -4 -8 -10 -11 -5 -3 -10 -1 -10 4 0 6 5 11 10 11 6 0 10
-2 10 -4z m1336 -33 c-11 -11 -19 6 -11 24 8 17 8 17 12 0 3 -10 2 -21 -1 -24z
m-1249 -65 c-2 -13 -4 -3 -4 22 0 25 2 35 4 23 2 -13 2 -33 0 -45z m1432 11
c43 -15 39 -29 -9 -29 -38 0 -52 14 -33 33 8 9 4 9 42 -4z m-1009 -9 c0 -5
-18 -10 -40 -10 -22 0 -40 5 -40 10 0 6 18 10 40 10 22 0 40 -4 40 -10z m560
-5 c0 -11 -11 -15 -40 -15 -29 0 -40 4 -40 15 0 11 11 15 40 15 29 0 40 -4 40
-15z m-886 -30 c-4 -8 -10 -12 -15 -9 -14 8 -10 24 6 24 9 0 12 -6 9 -15z
m2076 -5 c0 -5 -4 -10 -10 -10 -5 0 -10 5 -10 10 0 6 5 10 10 10 6 0 10 -4 10
-10z m-1670 -25 c0 -18 -16 -18 -55 0 l-30 13 43 1 c31 1 42 -3 42 -14z m270
5 c0 -5 -7 -10 -15 -10 -8 0 -15 5 -15 10 0 6 7 10 15 10 8 0 15 -4 15 -10z
m1330 -25 c0 -11 -11 -15 -42 -14 l-43 1 40 13 c22 8 41 14 43 14 1 1 2 -6 2
-14z m-1650 -5 c12 -8 11 -10 -7 -10 -13 0 -23 5 -23 10 0 13 11 13 30 0z
m315 -10 c-3 -5 -12 -10 -18 -10 -7 0 -6 4 3 10 19 12 23 12 15 0z m-69 -83
c1 -73 0 -76 -6 -32 -11 67 -12 115 -2 115 4 0 8 -37 8 -83z m264 43 c0 -22
-4 -40 -10 -40 -5 0 -10 18 -10 40 0 22 5 40 10 40 6 0 10 -18 10 -40z m941
-47 c-9 -15 -10 -14 -7 7 3 14 6 39 7 55 2 27 3 26 6 -7 2 -21 -1 -46 -6 -55z
m236 25 c-2 -13 -4 -3 -4 22 0 25 2 35 4 23 2 -13 2 -33 0 -45z m-270 0 c-2
-13 -4 -5 -4 17 -1 22 1 32 4 23 2 -10 2 -28 0 -40z m320 -10 c-3 -8 -6 -5 -6
6 -1 11 2 17 5 13 3 -3 4 -12 1 -19z m-2009 -68 c-1 -33 -5 -56 -9 -52 -7 7 0
112 8 112 2 0 2 -27 1 -60z m489 -2 c-2 -13 -4 -3 -4 22 0 25 2 35 4 23 2 -13
2 -33 0 -45z m1073 55 c0 -5 -7 -17 -15 -27 -14 -19 -15 -19 -15 7 0 17 5 27
15 27 8 0 15 -3 15 -7z m238 -55 c-3 -7 -18 -14 -34 -16 -28 -3 -28 -3 -9 12
24 19 48 21 43 4z m-1448 -28 c0 -5 -7 -10 -15 -10 -8 0 -15 5 -15 10 0 6 7
10 15 10 8 0 15 -4 15 -10z m287 -52 c-2 -13 -4 -3 -4 22 0 25 2 35 4 23 2
-13 2 -33 0 -45z m1170 -120 c-2 -35 -3 -7 -3 62 0 69 1 97 3 63 2 -35 2 -91
0 -125z m-1664 165 c-13 -2 -33 -2 -45 0 -13 2 -3 4 22 4 25 0 35 -2 23 -4z
m1120 -10 c-13 -2 -33 -2 -45 0 -13 2 -3 4 22 4 25 0 35 -2 23 -4z m274 -115
c-2 -13 -4 -3 -4 22 0 25 2 35 4 23 2 -13 2 -33 0 -45z m-1073 46 c29 -11 16
-24 -24 -24 -29 0 -40 4 -40 15 0 16 35 20 64 9z m173 -46 c-2 -13 -4 -5 -4
17 -1 22 1 32 4 23 2 -10 2 -28 0 -40z m873 31 c0 -5 -4 -9 -10 -9 -5 0 -10 7
-10 16 0 8 5 12 10 9 6 -3 10 -10 10 -16z m-440 1 c0 -5 -7 -10 -15 -10 -8 0
-15 5 -15 10 0 6 7 10 15 10 8 0 15 -4 15 -10z m-190 -10 c0 -5 -18 -10 -40
-10 -22 0 -40 5 -40 10 0 6 18 10 40 10 22 0 40 -4 40 -10z m625 -30 c3 -5 -1
-10 -10 -10 -9 0 -13 5 -10 10 3 6 8 10 10 10 2 0 7 -4 10 -10z m-922 -7 c-7
-2 -19 -2 -25 0 -7 3 -2 5 12 5 14 0 19 -2 13 -5z m810 -175 c-4 -48 -2 -68 6
-68 6 0 11 17 11 40 0 55 17 51 22 -6 3 -40 -1 -49 -31 -82 -30 -32 -35 -34
-39 -18 -2 10 2 23 10 27 11 6 14 36 13 146 -1 104 0 125 7 83 4 -30 5 -85 1
-122z m48 92 c5 0 8 -34 7 -77 l-2 -78 -3 70 c-3 48 -8 74 -19 82 -12 9 -13
20 -7 50 l8 38 3 -42 c2 -24 7 -43 13 -43z m-758 63 c-71 -2 -123 -8 -123 -13
0 -6 -4 -10 -10 -10 -5 0 -10 7 -10 15 0 13 20 15 133 13 l132 -2 -122 -3z
m867 -13 c0 -6 -6 -12 -12 -14 -64 -17 -98 -22 -98 -14 0 8 57 24 73 20 4 -1
7 3 7 8 0 6 7 10 15 10 8 0 15 -5 15 -10z m-520 -90 c0 -22 -4 -40 -10 -40 -5
0 -10 18 -10 40 0 22 5 40 10 40 6 0 10 -18 10 -40z m40 -81 c0 -24 -4 -38
-10 -34 -5 3 -10 22 -10 41 0 19 5 34 10 34 6 0 10 -18 10 -41z m640 1 c0 -22
-4 -40 -10 -40 -5 0 -10 -19 -11 -42 -1 -41 -1 -41 -9 -14 -6 17 -5 36 0 47 6
10 10 34 10 53 0 20 5 36 10 36 6 0 10 -18 10 -40z m27 -22 c-2 -13 -4 -3 -4
22 0 25 2 35 4 23 2 -13 2 -33 0 -45z m-1162 33 c3 -5 1 -12 -5 -16 -5 -3 -10
1 -10 9 0 18 6 21 15 7z m35 -1 c0 -5 -5 -10 -11 -10 -5 0 -7 5 -4 10 3 6 8
10 11 10 2 0 4 -4 4 -10z m315 0 c3 -5 1 -10 -4 -10 -6 0 -11 5 -11 10 0 6 2
10 4 10 3 0 8 -4 11 -10z m35 -6 c0 -8 -5 -12 -10 -9 -6 4 -8 11 -5 16 9 14
15 11 15 -7z m-369 -52 c-7 -2 -18 1 -23 6 -8 8 -4 9 13 5 13 -4 18 -8 10 -11z
m369 8 c0 -5 -5 -10 -11 -10 -5 0 -7 5 -4 10 3 6 8 10 11 10 2 0 4 -4 4 -10z
m665 -40 c3 -5 -1 -10 -9 -10 -9 0 -16 5 -16 10 0 6 4 10 9 10 6 0 13 -4 16
-10z m-181 -36 c4 -9 2 -13 -5 -8 -6 4 -15 0 -20 -7 -6 -10 -9 -8 -9 9 0 25
25 30 34 6z m196 -54 c6 -31 4 -40 -6 -40 -10 0 -14 14 -14 47 0 54 9 51 20
-7z m-40 -40 c0 -5 -2 -10 -4 -10 -3 0 -8 5 -11 10 -3 6 -1 10 4 10 6 0 11 -4
11 -10z"/>
<path d="M4563 2408 c2 -7 10 -13 17 -13 7 0 15 6 18 13 2 7 -5 12 -18 12 -13
0 -20 -5 -17 -12z"/>
<path d="M3440 2220 c0 -5 18 -10 40 -10 22 0 40 5 40 10 0 6 -18 10 -40 10
-22 0 -40 -4 -40 -10z"/>
<path d="M4205 1920 c3 -5 13 -10 21 -10 8 0 14 5 14 10 0 6 -9 10 -21 10 -11
0 -17 -4 -14 -10z"/>
<path d="M3227 3174 c-4 -4 -7 -68 -7 -141 l0 -134 52 3 52 3 0 40 c1 40 1 40
46 45 l45 5 0 90 0 90 -90 3 c-50 1 -94 0 -98 -4z"/>
<path d="M933 2873 c-7 -2 -13 -14 -13 -24 0 -20 -5 -20 -146 -13 l-145 7 3
-59 3 -59 88 -3 87 -3 0 -49 0 -50 -84 0 c-82 0 -84 -1 -90 -26 -4 -14 -4 -34
-1 -45 4 -12 1 -19 -7 -20 -7 0 -29 -1 -48 -2 -34 -2 -35 -4 -38 -44 l-3 -42
48 -3 48 -3 -3 -42 -4 -43 86 0 c93 0 93 0 88 63 -1 12 5 17 22 17 14 0 36 4
50 10 21 8 26 16 26 45 0 32 3 36 23 35 12 -1 55 -2 95 -1 l72 1 0 44 c0 50 6
57 50 58 17 1 33 6 37 11 11 18 13 66 2 72 -5 4 -48 4 -94 0 l-84 -7 -3 -47
-3 -46 -49 4 c-48 3 -49 3 -42 -24 12 -49 0 -66 -47 -63 -35 3 -43 7 -45 27
-7 45 6 70 36 69 51 -1 52 0 52 47 0 41 2 45 25 46 14 1 30 3 35 4 6 1 15 3
20 4 11 1 14 102 4 139 -6 21 -24 26 -51 15z"/>
<path d="M1248 2783 c7 -3 16 -2 19 1 4 3 -2 6 -13 5 -11 0 -14 -3 -6 -6z"/>
<path d="M1280 2670 l0 -41 43 3 c41 3 42 4 42 38 0 34 -1 35 -42 38 l-43 3 0
-41z"/>
<path d="M1194 2621 c-2 -2 -4 -24 -4 -48 l0 -44 43 3 c39 3 42 5 43 33 1 44
-11 60 -46 60 -17 0 -34 -2 -36 -4z"/>
<path d="M1103 2437 c-1 -45 -2 -87 -3 -94 0 -7 -19 -13 -47 -15 -45 -3 -48
-5 -54 -36 -9 -42 -3 -44 103 -40 l83 4 3 132 3 132 -43 0 -43 0 -2 -83z"/>
<path d="M1289 2428 c0 -2 -1 -20 -2 -41 l-2 -37 43 0 42 0 0 40 0 40 -40 0
c-22 0 -40 -1 -41 -2z"/>
<path d="M915 2413 c-9 -7 -11 -24 -6 -60 0 -8 16 -13 40 -13 40 0 40 0 38 38
-3 33 -6 37 -32 40 -17 1 -34 -1 -40 -5z"/>
<path d="M1757 2333 c-4 -3 -7 -84 -7 -180 0 -193 8 -174 -70 -177 -23 -1 -25
-6 -28 -48 l-3 -48 -85 0 -84 0 0 -40 0 -40 85 0 85 0 0 40 0 40 45 0 c47 0
47 0 49 55 1 28 4 30 49 33 54 4 51 -9 47 180 l-2 102 50 0 c49 0 50 0 54 34
2 19 2 39 0 45 -4 12 -174 16 -185 4z"/>
<path d="M1977 2243 c-26 -4 -28 -8 -25 -41 l3 -37 85 0 85 0 0 40 0 39 -60 2
c-33 1 -73 0 -88 -3z"/>
<path d="M101 2150 c-5 -3 -9 -83 -10 -177 l-2 -173 45 0 46 0 0 -44 0 -45 48
-3 47 -3 0 -43 0 -42 40 0 c57 0 68 -10 61 -53 l-6 -36 83 -3 82 -3 3 -47 3
-47 47 -3 47 -3 3 -47 3 -48 85 0 c80 0 84 -1 84 -22 0 -55 10 -68 51 -68 l39
0 0 -44 0 -45 54 -6 c29 -4 91 -5 137 -3 l84 4 3 47 3 47 44 0 44 0 3 43 3 42
65 2 c118 5 127 8 125 49 0 19 4 39 10 44 6 5 44 8 85 8 l75 -1 5 44 5 44 53
3 52 3 0 44 0 44 93 3 92 3 5 45 5 44 48 -3 c43 -2 47 -1 49 21 1 13 2 30 4
38 1 8 2 20 3 26 1 6 20 10 44 10 l42 -1 3 43 c2 23 8 42 15 43 7 1 23 2 37 2
l25 2 3 133 3 132 -36 0 c-19 0 -38 1 -42 3 -5 1 -10 -41 -13 -93 l-5 -95 -32
3 c-23 3 -34 -2 -42 -16 -6 -11 -8 -22 -5 -25 11 -11 -8 -48 -24 -46 -9 1 -34
1 -54 0 -36 -1 -37 -2 -40 -43 l-3 -43 -79 -9 c-63 -7 -80 -6 -88 5 -6 10 -8
-1 -6 -33 3 -44 1 -48 -22 -53 -14 -2 -34 -4 -45 -2 -16 2 -21 -7 -28 -47
l-10 -48 -86 3 -86 4 -5 -45 -5 -45 -92 -3 -93 -3 0 -44 0 -44 -48 -3 -47 -3
-3 -48 -3 -48 -129 2 c-71 0 -133 -2 -139 -5 -15 -10 -26 15 -26 59 0 29 -4
39 -14 37 -8 -2 -27 0 -42 3 -27 6 -29 10 -29 52 l0 45 -75 -7 c-90 -8 -105 0
-105 56 0 39 0 39 -40 39 -42 0 -45 4 -41 57 3 29 -11 35 -85 39 -35 1 -69 6
-75 9 -6 4 -9 23 -7 44 l3 36 -52 3 -52 3 -3 42 c-3 41 -4 42 -43 45 -53 4
-68 9 -59 23 4 7 6 43 5 81 l-2 68 45 0 c44 0 46 1 47 30 1 17 2 38 3 48 1 15
-9 17 -77 17 -43 0 -82 -2 -86 -5z"/>
<path d="M274 2045 c-2 -5 -2 -23 0 -40 3 -25 8 -30 35 -32 26 -2 33 2 42 23
16 43 4 62 -37 61 -20 -1 -38 -6 -40 -12z"/>
<path d="M359 1965 c-3 -3 -3 -22 1 -43 6 -36 7 -37 45 -35 43 3 55 14 51 52
-3 23 -8 26 -47 29 -25 2 -47 0 -50 -3z"/>
<path d="M460 1841 l0 -41 80 0 80 0 0 38 0 37 -80 3 -80 3 0 -40z"/>
<path d="M1280 1756 l0 -45 -42 -3 -43 -3 0 -45 0 -45 43 -3 42 -3 0 45 0 45
93 3 92 3 3 48 3 47 -95 0 -96 0 0 -44z"/>
<path d="M631 1776 c-13 -15 -11 -52 3 -74 6 -10 29 -13 85 -10 70 3 76 1 77
-17 3 -68 1 -65 49 -65 l45 0 0 40 0 40 -45 0 -45 0 0 50 0 50 -79 0 c-55 0
-82 -4 -90 -14z"/>
<path d="M898 1568 c-3 -24 -3 -46 -1 -50 5 -9 142 -9 228 1 59 6 60 6 63 40
2 20 -2 37 -10 42 -7 5 -72 9 -144 9 l-132 0 -4 -42z"/>
<path d="M2258 1213 c12 -2 32 -2 45 0 12 2 2 4 -23 4 -25 0 -35 -2 -22 -4z"/>
<path d="M2430 1119 c0 -7 9 -9 24 -5 15 4 26 1 29 -7 3 -7 6 -5 6 6 1 12 -7
17 -29 17 -16 0 -30 -5 -30 -11z"/>
<path d="M2418 1089 c-31 -17 -20 -29 27 -29 45 0 60 12 28 24 -10 3 -22 8
-28 11 -5 2 -18 0 -27 -6z"/>
<path d="M2530 1020 c20 -13 40 -13 40 0 0 6 -12 10 -27 10 -22 0 -25 -2 -13
-10z"/>
<path d="M2525 980 c3 -5 11 -10 16 -10 6 0 7 5 4 10 -3 6 -11 10 -16 10 -6 0
-7 -4 -4 -10z"/>
<path d="M2320 910 c0 -13 20 -13 40 0 12 8 9 10 -12 10 -16 0 -28 -4 -28 -10z"/>
<path d="M2338 883 c12 -2 32 -2 45 0 12 2 2 4 -23 4 -25 0 -35 -2 -22 -4z"/>
<path d="M2440 860 l45 -7 -41 -1 c-29 -2 -41 -6 -41 -17 0 -12 16 -15 83 -15
46 0 85 4 88 8 3 5 -20 6 -51 4 -40 -3 -54 -2 -49 7 4 6 26 12 49 12 l42 2
-50 7 c-27 5 -66 8 -85 8 -32 -1 -31 -2 10 -8z"/>
<path d="M2405 799 c-4 -5 27 -9 74 -9 104 0 113 14 10 17 -43 1 -81 -2 -84
-8z"/>
</g>
</svg>
